<svg xmlns="http://www.w3.org/2000/svg" width="24" height="24" viewBox="0 0 24 24" fill="none">
  <path d="M15.422 14.443C15.2298 14.2683 14.9773 14.1752 14.7178 14.1832C14.4582 14.1912 14.212 14.2998 14.031 14.486L11.638 16.947C11.062 16.837 9.90398 16.476 8.71198 15.287C7.51998 14.094 7.15898 12.933 7.05198 12.361L9.51098 9.96699C9.69739 9.78612 9.80611 9.53982 9.81414 9.2802C9.82216 9.02059 9.72886 8.76804 9.55398 8.57599L5.85898 4.51299C5.68402 4.32035 5.44086 4.2035 5.18113 4.18725C4.9214 4.17101 4.66557 4.25665 4.46798 4.42599L2.29798 6.28699C2.12509 6.46051 2.0219 6.69145 2.00798 6.93599C1.99298 7.18599 1.70698 13.108 6.29898 17.702C10.305 21.707 15.323 22 16.705 22C16.907 22 17.031 21.994 17.064 21.992C17.3085 21.9783 17.5393 21.8747 17.712 21.701L19.572 19.53C19.7414 19.3325 19.8273 19.0768 19.8112 18.817C19.7951 18.5573 19.6785 18.3141 19.486 18.139L15.422 14.443Z" fill="white"/>
  <path d="M21 6H18V3H16V6H13V8H16V11H18V8H21V6Z" fill="white"/>
</svg>