<svg width="16" height="16" viewBox="0 0 16 16" fill="none" xmlns="http://www.w3.org/2000/svg">
<path d="M13.2687 5.72401C13.237 5.65166 13.1928 5.58551 13.138 5.52868L9.13799 1.52868C9.08116 1.47386 9.01501 1.42962 8.94266 1.39801C8.92266 1.38868 8.90132 1.38334 8.87999 1.37601C8.82421 1.35703 8.76614 1.34559 8.70732 1.34201C8.69332 1.34068 8.68066 1.33334 8.66666 1.33334H3.99999C3.26466 1.33334 2.66666 1.93134 2.66666 2.66668V13.3333C2.66666 14.0687 3.26466 14.6667 3.99999 14.6667H12C12.7353 14.6667 13.3333 14.0687 13.3333 13.3333V6.00001C13.3333 5.98601 13.326 5.97334 13.3247 5.95868C13.3214 5.89982 13.31 5.84171 13.2907 5.78601C13.284 5.76468 13.278 5.74401 13.2687 5.72401ZM11.0573 5.33334H9.33332V3.60934L11.0573 5.33334ZM3.99999 13.3333V2.66668H7.99999V6.00001C7.99999 6.17682 8.07023 6.34639 8.19525 6.47141C8.32028 6.59644 8.48985 6.66668 8.66666 6.66668H12L12.0013 13.3333H3.99999Z" fill="#4F5E7B"/>
<path d="M5.33334 8.00001H10.6667V9.33334H5.33334V8.00001ZM5.33334 10.6667H10.6667V12H5.33334V10.6667ZM5.33334 5.33334H6.66668V6.66668H5.33334V5.33334Z" fill="#4F5E7B"/>
</svg>
