<svg width="24" height="24" viewBox="0 0 24 24" fill="none" xmlns="http://www.w3.org/2000/svg">
<rect width="24" height="24" fill="#E5E5E5"/>
<g clip-path="url(#clip0_0_1)">
<rect x="-311" y="-654" width="375" height="812" rx="16" fill="url(#paint0_linear_0_1)"/>
<g filter="url(#filter0_d_0_1)">
<rect x="-311" y="-674" width="375" height="832" rx="16" fill="url(#paint1_linear_0_1)"/>
</g>
<g filter="url(#filter1_d_0_1)">
<circle cx="12" cy="12" r="28" fill="#2F80ED"/>
<path d="M12 2C6.486 2 2 5.589 2 10C2 12.907 3.897 15.515 7 16.934V22L12.34 17.995C17.697 17.853 22 14.32 22 10C22 5.589 17.514 2 12 2ZM16 11H13V14H11V11H8V9H11V6H13V9H16V11Z" fill="white"/>
</g>
</g>
<defs>
<filter id="filter0_d_0_1" x="-343" y="-714" width="439" height="896" filterUnits="userSpaceOnUse" color-interpolation-filters="sRGB">
<feFlood flood-opacity="0" result="BackgroundImageFix"/>
<feColorMatrix in="SourceAlpha" type="matrix" values="0 0 0 0 0 0 0 0 0 0 0 0 0 0 0 0 0 0 127 0" result="hardAlpha"/>
<feOffset dy="-8"/>
<feGaussianBlur stdDeviation="16"/>
<feColorMatrix type="matrix" values="0 0 0 0 0.275608 0 0 0 0 0.377031 0 0 0 0 0.529167 0 0 0 0.1 0"/>
<feBlend mode="normal" in2="BackgroundImageFix" result="effect1_dropShadow_0_1"/>
<feBlend mode="normal" in="SourceGraphic" in2="effect1_dropShadow_0_1" result="shape"/>
</filter>
<filter id="filter1_d_0_1" x="-48" y="-44" width="120" height="120" filterUnits="userSpaceOnUse" color-interpolation-filters="sRGB">
<feFlood flood-opacity="0" result="BackgroundImageFix"/>
<feColorMatrix in="SourceAlpha" type="matrix" values="0 0 0 0 0 0 0 0 0 0 0 0 0 0 0 0 0 0 127 0" result="hardAlpha"/>
<feOffset dy="4"/>
<feGaussianBlur stdDeviation="16"/>
<feColorMatrix type="matrix" values="0 0 0 0 0.27451 0 0 0 0 0.376471 0 0 0 0 0.529412 0 0 0 0.25 0"/>
<feBlend mode="normal" in2="BackgroundImageFix" result="effect1_dropShadow_0_1"/>
<feBlend mode="normal" in="SourceGraphic" in2="effect1_dropShadow_0_1" result="shape"/>
</filter>
<linearGradient id="paint0_linear_0_1" x1="-123.5" y1="-654" x2="-123.5" y2="158" gradientUnits="userSpaceOnUse">
<stop stop-color="white"/>
<stop offset="1" stop-color="#F4F4F4"/>
</linearGradient>
<linearGradient id="paint1_linear_0_1" x1="-123.5" y1="-674" x2="-123.5" y2="158" gradientUnits="userSpaceOnUse">
<stop stop-color="white"/>
<stop offset="1" stop-color="#F4F4F4"/>
</linearGradient>
<clipPath id="clip0_0_1">
<rect x="-311" y="-654" width="375" height="812" rx="16" fill="white"/>
</clipPath>
</defs>
</svg>
